<svg width="69" height="70" viewBox="0 0 69 70" xmlns="http://www.w3.org/2000/svg"><g id="svgGroup" stroke-linecap="round" fill-rule="evenodd" font-size="9pt" stroke="#080c5200" stroke-width="0.0mm" fill="#f57a00" style="stroke:#080c5200;stroke-width:0.0mm;fill:#f57a00"><path d="M 7.4 55.9 L 7.4 29.5 L 0 29.5 L 0 16 L 8.2 16 L 12.5 0 L 27.3 0 L 27.3 16 L 38.5 16 L 38.5 29.5 L 27.3 29.5 L 27.3 49.6 Q 27.3 52.871 28.318 54.615 A 4.831 4.831 0 0 0 28.4 54.75 Q 29.472 56.455 32.727 56.499 A 12.871 12.871 0 0 0 32.9 56.5 L 38.5 56.5 L 38.5 68.2 A 25.967 25.967 0 0 1 37.195 68.568 Q 36.607 68.718 35.946 68.864 A 52.018 52.018 0 0 1 34.55 69.15 Q 32.2 69.6 29.85 69.8 A 61.994 61.994 0 0 1 27.899 69.937 Q 27.009 69.984 26.217 69.996 A 34.532 34.532 0 0 1 25.7 70 Q 20.48 70 16.427 68.832 A 24.357 24.357 0 0 1 16.15 68.75 A 13.604 13.604 0 0 1 12.589 67.122 A 11.249 11.249 0 0 1 9.7 64.4 A 10.714 10.714 0 0 1 8.049 60.988 Q 7.613 59.497 7.47 57.713 A 22.688 22.688 0 0 1 7.4 55.9 Z M 69 68.8 L 47.8 68.8 L 47.8 48.9 L 69 48.9 L 69 68.8 Z" vector-effect="non-scaling-stroke"/></g></svg>